<?xml version="1.0" standalone="no"?><svg xmlns="http://www.w3.org/2000/svg" viewBox="0 0 1440 320"><path fill="#fa73ab" fill-opacity="1" d="M0,0L30,48C60,96,120,192,180,197.3C240,203,300,117,360,101.3C420,85,480,139,540,149.3C600,160,660,128,720,101.3C780,75,840,53,900,80C960,107,1020,181,1080,202.7C1140,224,1200,192,1260,192C1320,192,1380,224,1410,240L1440,256L1440,320L1410,320C1380,320,1320,320,1260,320C1200,320,1140,320,1080,320C1020,320,960,320,900,320C840,320,780,320,720,320C660,320,600,320,540,320C480,320,420,320,360,320C300,320,240,320,180,320C120,320,60,320,30,320L0,320Z"></path></svg>